<?xml version="1.0" encoding="UTF-8" standalone="no"?>
<!-- Created with Inkscape (http://www.inkscape.org/) -->

<svg
   width="165.01099mm"
   height="98.551056mm"
   viewBox="0 0 165.01099 98.551056"
   version="1.1"
   id="svg1"
   xml:space="preserve"
   sodipodi:docname="Gatto.svg"
   inkscape:version="1.4.3 (0d15f75, 2025-12-25)"
   xmlns:inkscape="http://www.inkscape.org/namespaces/inkscape"
   xmlns:sodipodi="http://sodipodi.sourceforge.net/DTD/sodipodi-0.dtd"
   xmlns="http://www.w3.org/2000/svg"
   xmlns:svg="http://www.w3.org/2000/svg"><sodipodi:namedview
     id="namedview1"
     pagecolor="#ffffff"
     bordercolor="#000000"
     borderopacity="0.25"
     inkscape:showpageshadow="2"
     inkscape:pageopacity="0.0"
     inkscape:pagecheckerboard="0"
     inkscape:deskcolor="#d1d1d1"
     inkscape:document-units="mm"
     inkscape:zoom="0.51882477"
     inkscape:cx="511.73347"
     inkscape:cy="91.553069"
     inkscape:window-width="1920"
     inkscape:window-height="991"
     inkscape:window-x="-9"
     inkscape:window-y="-9"
     inkscape:window-maximized="1"
     inkscape:current-layer="svg1" /><defs
     id="defs1" /><g
     id="layer1"
     transform="translate(-24.577749,-84.706391)"><path
       id="path1"
       style="fill:#000000"
       d="m 95.238281,83.150391 c -8.335479,0.144197 -16.647643,1.523756 -24.56226,4.151429 -12.477131,3.869042 -24.45404,9.992165 -33.974849,19.04584 -5.951834,5.74232 -10.894848,12.86088 -12.826533,20.99604 -1.543655,6.83498 -0.952704,13.99765 0.732771,20.74663 2.111816,7.94632 6.614178,15.24258 12.841606,20.62148 7.677999,6.76352 17.366383,10.81466 27.216581,13.2295 7.943219,1.964 16.127137,2.93432 24.311347,2.89411 5.188429,0.0154 10.384315,-0.0322 15.562096,-0.37684 7.38856,-0.63603 14.57921,-2.56097 21.89298,-3.7009 8.11777,-1.39731 16.1391,-3.56917 23.68294,-6.90709 3.49119,-1.6237 7.00405,-3.3516 9.97825,-5.83008 2.07915,-1.713 3.71782,-3.9153 4.82367,-6.36754 1.83412,-3.63035 4.23452,-6.92781 6.27843,-10.43422 1.17006,-2.08893 1.97266,-4.36361 2.45366,-6.704 0.36108,-1.31592 0.81547,-2.60808 1.38033,-3.85069 4.52511,-2.32515 9.87445,-2.87581 14.00781,-5.98437 1.76984,-1.42071 2.63275,-3.91212 1.88948,-6.09186 -0.51098,-1.75363 -1.92506,-3.12735 -3.59554,-3.8022 -4.70075,-2.54316 -9.75399,-4.34616 -14.53613,-6.71336 -1.73707,-1.20904 -2.49827,-3.28908 -3.75142,-4.92129 -3.91867,-5.83701 -9.17495,-10.67522 -15.01965,-14.540669 -6.09944,-4.033193 -12.75122,-7.175002 -19.57172,-9.77922 -8.55727,-3.153172 -17.64302,-4.594512 -26.70408,-5.327185 -4.16156,-0.311495 -8.336845,-0.425846 -12.509769,-0.353515 z m 4.357422,3.824218 c 9.362357,0.107137 18.645417,1.31722 27.709707,3.707325 7.19751,2.112024 14.09105,5.203142 20.74471,8.736269 2.32932,1.268277 4.51831,2.814737 6.3561,4.734677 2.6441,2.39924 5.7402,4.31715 7.98308,7.14126 1.17948,1.35606 2.35288,2.80175 3.35289,4.25078 -1.61466,-0.47261 -3.27054,-1.06248 -4.96289,-1.03125 -1.53242,0.31178 -1.68296,2.77676 -0.19506,3.27149 2.30346,0.98392 4.7612,1.52012 7.072,2.49148 1.27883,0.47521 2.5443,0.98431 3.80274,1.51047 -3.59979,0.0774 -7.25333,0.3864 -10.69513,1.49321 -0.6749,0.25774 -1.19923,0.85395 -1.34393,1.56148 -0.93106,-0.27851 -2.13693,-0.6274 -2.96289,0.043 -0.74348,0.89968 -0.0344,2.29082 0.85352,2.79101 1.25423,0.60267 2.58958,1.07343 3.65387,2.00819 1.48042,1.17402 2.68576,2.68965 4.37729,3.58704 0.93438,0.60191 1.86946,1.20275 2.80477,1.80321 -1.02515,-2.90512 -1.98495,-6.14692 -4.60846,-8.03691 -0.39097,-0.28744 -0.89028,-0.54823 -0.13608,-0.55305 3.79616,-0.73969 7.74647,-1.05714 11.60392,-0.87488 3.4491,0.21556 6.98765,0.76054 10.07212,2.39902 1.05665,0.53678 2.22067,1.65045 1.76037,2.94792 -0.81353,1.7764 -2.92692,2.14016 -4.55208,2.83199 -3.74941,1.35813 -7.79886,2.12152 -11.17299,4.34255 -1.26041,1.01559 -1.78848,2.7095 -1.61043,4.28379 -0.0987,3.13701 -1.45453,6.1064 -3.06681,8.65575 -1.69496,2.37816 -2.91771,5.13747 -5.08643,7.1464 -1.97111,1.80207 -4.63926,2.36274 -7.01367,3.41601 -2.26615,0.98298 -3.97401,2.86026 -5.28046,4.9079 -1.03043,1.45643 -1.93515,3.39839 -3.83868,3.82843 0.01,-0.8912 -0.77283,-1.41476 -1.33985,-1.9668 0.90261,-0.57738 1.90603,-1.07004 2.5625,-1.9414 0.83362,-0.62426 0.41369,-2.17848 -0.67578,-2.15821 -2.20444,-0.20048 -4.78577,0.66989 -5.76578,2.79342 -0.20587,0.49673 -0.28255,1.04392 -0.25375,1.57963 -1.72616,0.27528 -3.11218,-1.18644 -3.80427,-2.60597 -1.18306,-2.18441 -1.1542,-4.9267 -0.006,-7.11912 1.68337,-4.57396 0.37662,-9.78592 -2.36474,-13.67049 -1.77098,-2.63502 -4.35004,-4.98407 -4.77311,-8.29177 -0.13232,-1.27564 -0.45691,-2.54776 -1.20321,-3.60578 -0.3533,-0.74954 -1.39991,-0.67159 -1.81901,-0.0272 -1.37842,1.0913 -1.21481,3.05668 -1.02587,4.6161 0.44811,3.04854 2.38377,5.55576 4.22521,7.91405 2.0763,2.77825 3.83446,6.1566 3.37437,9.73286 -0.11412,1.43664 -0.6907,2.86682 -1.16356,4.15496 -3.41238,-1.88442 -7.44966,-2.10609 -11.24885,-1.67216 -8.45689,0.73766 -16.56814,3.47692 -24.969744,4.47305 -11.624785,1.58142 -23.643664,1.31702 -34.809038,-2.52621 -6.077475,-2.10304 -11.748387,-5.33864 -16.683071,-9.45856 -0.868885,-0.67913 -1.997638,-1.37604 -3.133043,-1.0837 -0.910324,0.38584 -0.737176,1.57053 -0.228699,2.21616 1.272407,1.74981 3.081666,3.01527 4.750538,4.36019 8.412712,6.33713 18.772461,9.6004 29.139749,10.82266 10.96239,1.29005 22.091747,0.10912 32.779628,-2.48809 6.09216,-1.33735 12.19834,-2.78097 18.45722,-2.35233 1.63519,0.1681 3.28001,0.65295 4.60156,1.75 1.9421,1.73834 2.97655,4.87012 1.57227,7.23828 -1.90304,2.89016 -5.24808,4.2895 -8.35687,5.47735 -5.45575,1.9681 -11.27765,2.93852 -17.06685,3.60974 -11.632702,1.35786 -23.462758,1.29461 -34.970812,-0.94451 -9.559204,-1.90561 -18.984106,-5.22847 -27.007488,-10.97109 -6.102114,-4.34984 -11.225023,-10.24541 -14.01004,-17.25416 -1.568227,-3.85702 -2.360175,-7.83527 -2.771534,-11.9935 -0.488719,-5.57949 0.266955,-11.42499 2.602404,-16.62084 3.34405,-7.61557 9.448187,-13.65161 16.145695,-18.4061 7.479623,-5.257463 15.78206,-9.427301 24.403084,-12.337489 7.764033,-2.616312 15.815616,-4.12183 23.999207,-4.514475 1.697684,-0.07613 3.486217,-0.12064 5.216797,-0.123047 z m 1.523437,26.015621 c -8.163045,0.3567 -15.861898,3.89133 -22.428772,8.5852 -4.132905,2.91644 -8.145997,5.99889 -12.196227,9.03004 1.237995,0.5411 2.539883,1.6748 3.972656,1.16211 6.227464,-3.6737 11.668603,-8.66418 18.349769,-11.57236 5.684179,-2.66089 12.110574,-4.33159 18.394754,-3.24585 3.12296,0.56173 6.17013,1.84632 8.67232,3.67316 3.00425,2.13594 5.06465,5.30752 8.01188,7.5139 0.83037,0.83215 1.70331,2.14016 3.0631,1.84631 1.40423,-0.29961 1.98128,-2.32847 0.86569,-3.27607 -0.21586,-0.35759 -0.78008,-0.71242 -0.81454,-1.02308 1.58231,-1.6929 2.52854,-3.99791 4.54592,-5.27536 1.35954,-0.70109 0.98624,-3.11008 -0.57671,-3.25914 -2.24812,-0.0477 -3.94921,1.76976 -5.13022,3.48388 -0.5646,0.80873 -1.14472,1.61331 -1.60071,2.49008 -2.67312,-2.85072 -5.46696,-5.77774 -9.11018,-7.36931 -4.33038,-2.11891 -9.22025,-2.96666 -14.01873,-2.76351 z m 40.58398,9.54688 c -3.78512,0.59598 -7.1778,2.67563 -10.03678,5.14138 -0.90229,0.88048 -1.79399,2.37397 -0.95931,3.57542 0.83174,1.07581 2.61677,0.85269 3.33556,-0.23824 1.9443,-2.15543 4.41304,-3.86969 7.23059,-4.64629 0.96863,-0.36623 2.33618,-0.45592 2.66823,-1.63696 0.40261,-1.04019 -0.46675,-2.16681 -1.54688,-2.1875 -0.22913,-0.026 -0.4614,-0.0208 -0.69141,-0.008 z m 9.90626,27.94727 c -1.3045,0.0215 -1.89346,1.47673 -1.79448,2.60468 0.14798,1.3231 -1.23298,2.01197 -1.88537,2.97039 -0.69456,0.78626 -0.9601,2.21424 0.0548,2.86243 0.85131,0.61342 1.96245,0.25888 2.70192,-0.35766 1.53905,-1.11994 3.17491,-2.59818 3.32118,-4.62488 0.14096,-1.35966 -0.4484,-3.15423 -1.9606,-3.42762 -0.14481,-0.0241 -0.29083,-0.0341 -0.4375,-0.0273 z m 6.17187,14.0996 c -1.38944,1.29235 -2.97071,2.35717 -4.59961,3.32227 1.07392,-1.5111 2.57208,-2.76964 4.37782,-3.25296 0.0661,-0.0263 0.19819,-0.0702 0.22179,-0.0693 z m -21.41211,7.41211 c 1.01395,0.43966 2.15733,0.49425 3.17859,0.86407 0.43943,0.32474 1.06933,0.68288 0.1382,0.75678 -2.13314,0.65984 -4.28997,1.24223 -6.46327,1.75415 1.1103,-1.01029 2.07149,-2.21169 2.67968,-3.59179 0.1556,0.0723 0.3112,0.14453 0.4668,0.21679 z" /></g></svg>
